<svg width="17" height="32" viewBox="0 0 17 32" fill="none" xmlns="http://www.w3.org/2000/svg">
<path fill-rule="evenodd" clip-rule="evenodd" d="M13.3759 0.117196C12.8118 0.260324 12.6764 0.318939 12.5334 0.481753C12.3898 0.64536 12.3338 0.800978 12.3315 1.04263C12.3278 1.44377 12.489 1.6077 12.8873 1.60776C13.1383 1.60782 13.226 1.57159 13.226 1.4679C13.226 1.39958 13.2456 1.39071 13.47 1.35732C13.7571 1.31466 13.8798 1.25135 13.9834 1.09262C14.0473 0.994574 14.0859 0.970894 14.231 0.940778C14.4393 0.897539 14.4749 0.909109 14.5465 1.04352C14.5924 1.12959 14.6062 1.26917 14.6243 1.82973C14.6423 2.38915 14.6586 2.5539 14.715 2.74905C14.8033 3.05429 14.9341 3.32723 15.0845 3.52029C15.2187 3.69246 15.2132 3.72809 15.0332 3.85064C14.8975 3.94302 14.79 3.94058 14.5137 3.83888C13.9462 3.63004 13.2795 3.80518 12.7749 4.29572L12.6249 4.44148L12.5087 4.38607C12.1005 4.19142 11.5326 4.30529 10.783 4.73208C10.4476 4.92304 10.3438 4.94108 10.1352 4.84477C9.87791 4.72602 9.75155 4.48938 9.70578 4.0405C9.68936 3.8794 9.66821 3.67984 9.6588 3.59704C9.64193 3.44887 9.64311 3.44646 9.73123 3.44646C9.80874 3.44646 9.83296 3.42189 9.91069 3.26418C10.0361 3.00975 10.1193 2.75808 10.1193 2.63312C10.1193 2.49852 10.0246 2.40034 9.89465 2.40034C9.79885 2.40034 9.7972 2.39777 9.81714 2.27965C9.84542 2.11228 9.78715 1.68609 9.70657 1.47065C9.61813 1.23426 9.37593 0.969943 9.14978 0.862953C8.61724 0.611028 7.82599 0.719571 7.41179 1.10137C7.10525 1.38395 6.97616 1.86809 7.08445 2.32901C7.12795 2.51411 7.12734 2.52714 7.07574 2.52714C6.96976 2.52714 6.93904 2.61004 6.96028 2.83866C6.9975 3.23885 7.10477 3.47791 7.24743 3.47838C7.30281 3.47857 7.32595 3.5194 7.38672 3.72406C7.59214 4.4158 7.55308 4.88675 7.27821 5.03349C7.04356 5.15871 6.6073 5.01827 6.25529 4.70418C5.88874 4.37713 5.55604 4.27949 4.92196 4.31293C4.72063 4.32358 4.47743 4.35094 4.38153 4.37377L4.20718 4.41529L4.00112 4.20826C3.53471 3.73963 3.01729 3.65061 2.23873 3.90507C2.17415 3.92619 2.17311 3.92124 2.2005 3.72625C2.2256 3.54768 2.17891 2.38956 2.14435 2.33336C2.13779 2.32267 2.18027 2.21568 2.23876 2.0956C2.29725 1.97552 2.39923 1.72036 2.46536 1.52857C2.53148 1.33678 2.58756 1.17663 2.58991 1.1727C2.59228 1.16874 2.67033 1.19445 2.76337 1.22979C2.85641 1.26514 3.02211 1.30242 3.13164 1.31266C3.30663 1.32898 3.333 1.34024 3.34939 1.40554C3.35963 1.44643 3.41209 1.53006 3.46595 1.5914C3.59326 1.7364 3.69436 1.73922 3.77047 1.5999C3.81872 1.51161 3.8261 1.42031 3.82214 0.962018C3.81802 0.486413 3.8107 0.418003 3.75601 0.344743C3.56198 0.0848611 2.66431 -0.0712645 2.25607 0.0838467C1.97434 0.1909 1.9002 0.272053 1.66938 0.726006C1.55235 0.956153 1.38937 1.2309 1.3072 1.33653C1.04827 1.66935 0.461939 2.64472 0.243268 3.10628C0.0936733 3.42202 0.00316797 3.79092 0.000219813 4.09686C-0.00339406 4.46976 0.0315718 4.52054 0.561606 4.9123C0.805701 5.09274 1.14094 5.35411 1.30657 5.49315C1.69243 5.8171 1.98858 6.01259 2.35948 6.18828C2.73414 6.36577 2.98677 6.42527 3.36838 6.42584C3.85394 6.4266 4.14527 6.52488 4.3264 6.749C4.40737 6.84917 4.42458 6.90497 4.44851 7.14526C4.51759 7.83827 4.70855 8.37328 5.1768 9.1857C5.36026 9.50401 5.45919 9.88571 5.54209 10.595C5.63196 11.364 5.57373 12.1243 5.27257 14.1137C5.04363 15.6261 5.0145 15.8658 4.99326 16.412L4.97414 16.9034L4.82169 17.26C4.62477 17.7207 4.37215 18.4533 4.25679 18.8982C3.98848 19.9331 4.00854 20.7224 4.31284 21.1022C4.36352 21.1655 4.41247 21.2747 4.42471 21.3518C4.50789 21.8762 5.14583 22.4847 5.98958 22.8444C6.17832 22.9249 6.37271 23.048 6.65558 23.2663C7.27726 23.7461 7.40463 23.8792 7.48857 24.1366C7.74417 24.9202 8.16291 25.9865 8.4886 26.683C8.75752 27.2581 8.9753 28.238 8.92544 28.6485C8.88502 28.9812 8.93964 28.9252 8.21737 29.3746C7.7126 29.6886 7.50623 29.7994 7.35461 29.8376C6.66191 30.0122 6.06559 30.2951 5.87232 30.5408C5.76789 30.6735 5.79436 30.8312 5.93486 30.9135C6.09298 31.0061 6.52231 30.9972 7.06023 30.8902C8.16731 30.6701 9.33171 30.5328 9.78649 30.5687C10.2762 30.6073 10.4603 30.5948 10.6219 30.5116C10.9256 30.3553 10.9662 30.0528 10.7741 29.3776C10.4433 28.2145 10.1689 26.9231 10.1006 26.2075C10.0794 25.9854 10.0815 25.9727 10.1322 26.0148C10.162 26.0396 10.2843 26.19 10.4039 26.3491C11.092 27.2647 11.5366 28.316 11.689 29.3875C11.7152 29.5717 11.7352 29.9563 11.7355 30.2826C11.7359 30.6847 11.7474 30.8661 11.7741 30.8929C11.795 30.9138 11.8655 30.9309 11.9308 30.9309C11.9961 30.9309 12.1005 30.961 12.1629 30.9979C12.2588 31.0544 12.2901 31.0592 12.3645 31.0283C12.6047 30.9288 12.7666 30.4226 12.8924 29.3776C13.114 27.536 13.0989 26.2568 12.8516 25.9233C12.7652 25.8069 12.4752 25.6735 12.19 25.6191L11.9421 25.5718L11.6618 25.2953C10.8622 24.5064 10.0099 23.4146 9.67474 22.7499C9.6082 22.6179 9.46523 22.2755 9.35707 21.9891C9.16126 21.4706 8.97869 21.0692 8.89589 20.975C8.85902 20.9331 8.86235 20.7022 8.91789 19.4534L8.98338 17.9812L9.15587 17.5302C9.25072 17.2821 9.37628 16.892 9.4349 16.6632L9.54144 16.2472L9.69706 16.1584C9.78262 16.1095 9.93301 15.9892 10.0312 15.891C10.487 15.4351 10.6992 14.8948 10.7414 14.082C10.766 13.6078 10.729 13.2999 10.5438 12.4378L10.3999 11.7679L10.4519 11.4826C10.5102 11.1622 10.7702 10.4544 11.0227 9.92854C11.1412 9.68156 11.3043 9.42596 11.5791 9.05678C12.1473 8.29304 12.3864 7.92066 12.6166 7.44074C12.8288 6.99845 13.0448 6.63776 13.1499 6.55065C13.1887 6.51844 13.3342 6.48747 13.559 6.46363C14.0077 6.41602 14.3063 6.33249 14.7001 6.14434C15.1212 5.94314 15.4751 5.66966 15.8237 5.276C16.1446 4.91356 16.367 4.7097 16.6395 4.52818C16.8806 4.36755 16.9371 4.30089 16.982 4.12406C17.1198 3.58131 16.4541 2.26444 15.4128 1.02016C15.2955 0.880008 15.1679 0.703245 15.1292 0.627322C14.9354 0.247549 14.5794 0.0243763 14.1329 0.00278814C13.9122 -0.00786327 13.8053 0.00827234 13.3759 0.117196Z" fill="white"/>
</svg>
