<svg width="14" height="30" viewBox="0 0 14 30" fill="none" xmlns="http://www.w3.org/2000/svg">
<path d="M9.88405 4.92874C11.2451 4.92874 12.3484 3.8254 12.3484 2.46437C12.3484 1.10334 11.2451 0 9.88405 0C8.52301 0 7.41968 1.10334 7.41968 2.46437C7.41968 3.8254 8.52301 4.92874 9.88405 4.92874Z" fill="#3F3D56"/>
<path d="M2.23804 7.29166C1.68934 7.53547 1.16234 7.78786 0.664624 8.03773C-0.843175 8.79491 0.481891 11.0513 1.98565 10.2967C2.07399 10.2527 2.16384 10.2124 2.25218 10.1694C2.20776 9.21742 2.18959 8.25529 2.23804 7.29166Z" fill="#3F3D56"/>
<path d="M13.2934 7.28961C13.3731 6.83733 13.197 6.37393 12.6251 6.1286C10.4519 5.19525 7.96536 5.39666 5.59791 6.05844C5.59842 6.15435 5.59387 6.25076 5.57873 6.34819C5.45556 7.14171 5.42982 7.8257 5.44547 8.64295L9.88457 8.48495C9.88457 8.48495 10.5065 8.6485 10.0431 8.8696C9.39038 8.89837 5.08303 9.10584 5.08303 9.10584C5.03003 8.01045 5.02649 6.91304 5.19307 5.83835C5.4485 4.1882 2.92809 3.47948 2.67015 5.14276C2.33598 7.29618 2.49751 9.43142 2.62371 11.5949C2.67822 12.5434 3.70597 13.2794 4.59187 12.7247C5.23043 12.3244 5.84576 11.8751 6.43233 11.391L6.43031 12.2365L6.41213 21.3555V28.5891C6.41213 29.368 6.98153 30 7.78263 30C8.58272 30 9.23289 29.368 9.23289 28.5891V18.25H10.513C10.513 20.6725 10.513 26.2015 10.513 28.6244C10.513 30.3114 13.1298 30.3114 13.1298 28.6244C13.1298 26.2015 13.1298 23.779 13.1298 21.3575C13.6634 10.4329 13.6654 10.4657 13.2934 7.28961Z" fill="#3F3D56"/>
</svg>
