<svg width="40" height="40" viewBox="0 0 40 40" fill="none" xmlns="http://www.w3.org/2000/svg">
<path d="M14 6.10352e-05H2C1.46957 6.10352e-05 0.960859 0.210775 0.585787 0.585848C0.210714 0.96092 0 1.46963 0 2.00006C0 2.53049 0.210714 3.0392 0.585787 3.41427C0.960859 3.78935 1.46957 4.00006 2 4.00006V34.0001C2 35.5914 2.63214 37.1175 3.75736 38.2427C4.88258 39.3679 6.4087 40.0001 8 40.0001C9.5913 40.0001 11.1174 39.3679 12.2426 38.2427C13.3679 37.1175 14 35.5914 14 34.0001V4.00006C14.5304 4.00006 15.0391 3.78935 15.4142 3.41427C15.7893 3.0392 16 2.53049 16 2.00006C16 1.46963 15.7893 0.96092 15.4142 0.585848C15.0391 0.210775 14.5304 6.10352e-05 14 6.10352e-05ZM12.6667 10.6667H9.33333V12.0001H12.6667V15.3334H9.33333V16.6667H12.6667V19.3334H9.33333V20.6667H12.6667V23.3334H9.33333V24.6667H12.6667V27.3334H9.33333V28.6667H12.6667V31.3334H9.33333V32.6667H12.6667V34.0001C12.6667 35.2377 12.175 36.4247 11.2998 37.2999C10.4247 38.1751 9.23768 38.6667 8 38.6667C6.76232 38.6667 5.57534 38.1751 4.70017 37.2999C3.825 36.4247 3.33333 35.2377 3.33333 34.0001V20.6667H8V19.3334H3.33333V4.00006H12.6667V10.6667ZM14 2.66673H2C1.82319 2.66673 1.65362 2.59649 1.5286 2.47147C1.40357 2.34644 1.33333 2.17687 1.33333 2.00006C1.33333 1.82325 1.40357 1.65368 1.5286 1.52866C1.65362 1.40363 1.82319 1.33339 2 1.33339H14C14.1768 1.33339 14.3464 1.40363 14.4714 1.52866C14.5964 1.65368 14.6667 1.82325 14.6667 2.00006C14.6667 2.17687 14.5964 2.34644 14.4714 2.47147C14.3464 2.59649 14.1768 2.66673 14 2.66673Z" fill="#0076BE"/>
<path d="M40 12.0001C40 9.83045 39.4118 7.70139 38.298 5.83949C37.1841 3.97758 35.5863 2.45249 33.6746 1.4265C31.7629 0.400517 29.6088 -0.0879761 27.4415 0.0130075C25.2742 0.113991 23.1748 0.800673 21.3668 1.99998C19.5588 3.19929 18.1097 4.86634 17.1738 6.82376C16.2379 8.78117 15.8502 10.9557 16.052 13.1159C16.2538 15.2762 17.0374 17.3413 18.3196 19.0915C19.6018 20.8418 21.3345 22.2117 23.3333 23.0554V26.6668H24.6667V36.6668C24.6667 37.5508 25.0179 38.3987 25.643 39.0238C26.2681 39.6489 27.116 40.0001 28 40.0001C28.8841 40.0001 29.7319 39.6489 30.357 39.0238C30.9821 38.3987 31.3333 37.5508 31.3333 36.6668V26.6668H32.6667V23.0554C34.8392 22.1358 36.6929 20.5972 37.997 18.6313C39.301 16.6654 39.9976 14.3592 40 12.0001ZM30 36.6668C30 37.1972 29.7893 37.7059 29.4142 38.081C29.0391 38.456 28.5304 38.6668 28 38.6668C27.4696 38.6668 26.9609 38.456 26.5858 38.081C26.2107 37.7059 26 37.1972 26 36.6668V26.6668H30V36.6668ZM31.3333 25.3334H24.6667V23.5194C26.8427 24.1602 29.1573 24.1602 31.3333 23.5194V25.3334ZM28 22.6668C25.8903 22.6668 23.828 22.0412 22.0739 20.8691C20.3198 19.697 18.9526 18.0311 18.1453 16.082C17.338 14.133 17.1267 11.9883 17.5383 9.91912C17.9499 7.84999 18.9658 5.94937 20.4575 4.45761C21.9493 2.96585 23.8499 1.94995 25.919 1.53838C27.9882 1.1268 30.1329 1.33804 32.082 2.14537C34.031 2.9527 35.6969 4.31988 36.869 6.074C38.0411 7.82813 38.6667 9.89042 38.6667 12.0001C38.6633 14.828 37.5384 17.5392 35.5388 19.5389C33.5391 21.5385 30.828 22.6634 28 22.6668Z" fill="#0076BE"/>
<path d="M32.8033 4.00006L32.1147 5.14139C33.2957 5.85594 34.2732 6.86198 34.9536 8.06301C35.6339 9.26403 35.9943 10.6197 36 12.0001H37.3333C37.3269 10.3902 36.9069 8.809 36.1137 7.40813C35.3204 6.00726 34.1805 4.83371 32.8033 4.00006Z" fill="#0076BE"/>
<path d="M31.5887 3.38409C31.1236 3.19009 30.6436 3.03403 30.1533 2.91742L29.8467 4.21542C30.266 4.31523 30.6764 4.44901 31.074 4.61542L31.5887 3.38409Z" fill="#0076BE"/>
<path d="M28.6667 10.6668H26V17.3334H28.6667C29.0535 17.3351 29.4324 17.2242 29.7572 17.014C30.082 16.8039 30.3385 16.5037 30.4955 16.1502C30.6525 15.7967 30.7031 15.4051 30.6411 15.0232C30.5792 14.6414 30.4074 14.2859 30.1467 14.0001C30.4074 13.7143 30.5792 13.3588 30.6411 12.977C30.7031 12.5951 30.6525 12.2035 30.4955 11.85C30.3385 11.4965 30.082 11.1963 29.7572 10.9862C29.4324 10.776 29.0535 10.6651 28.6667 10.6668ZM27.3333 12.0001H28.6667C28.8435 12.0001 29.013 12.0703 29.1381 12.1954C29.2631 12.3204 29.3333 12.49 29.3333 12.6668C29.3333 12.8436 29.2631 13.0131 29.1381 13.1382C29.013 13.2632 28.8435 13.3334 28.6667 13.3334H27.3333V12.0001ZM28.6667 16.0001H27.3333V14.6668H28.6667C28.8435 14.6668 29.013 14.737 29.1381 14.862C29.2631 14.9871 29.3333 15.1566 29.3333 15.3334C29.3333 15.5102 29.2631 15.6798 29.1381 15.8048C29.013 15.9299 28.8435 16.0001 28.6667 16.0001Z" fill="#0076BE"/>
<path d="M28 21.3334C26.2325 21.3315 24.5379 20.6285 23.2881 19.3786C22.0383 18.1288 21.3353 16.4343 21.3333 14.6667C21.3333 11.2001 26.8727 4.92541 27.504 4.22141L28 3.66675L28.496 4.21942C29.1273 4.92541 34.6667 11.2001 34.6667 14.6667C34.6647 16.4343 33.9617 18.1288 32.7119 19.3786C31.4621 20.6285 29.7675 21.3315 28 21.3334ZM28 5.67941C26.1513 7.84141 22.6667 12.3854 22.6667 14.6667C22.6667 16.0812 23.2286 17.4378 24.2288 18.438C25.229 19.4382 26.5855 20.0001 28 20.0001C29.4145 20.0001 30.7711 19.4382 31.7712 18.438C32.7714 17.4378 33.3333 16.0812 33.3333 14.6667C33.3333 12.3854 29.8487 7.84141 28 5.67941Z" fill="#F0BC5E"/>
</svg>
