<svg width="40" height="40" viewBox="0 0 40 40" fill="none" xmlns="http://www.w3.org/2000/svg">
<path d="M36.875 31.875H23.125V26.875H36.875V31.875Z" fill="#F0BC5E"/>
<path d="M12.4556 0.625H11.295C7.82375 0.625 5 3.44875 5 6.91937C5 7.66188 5.16812 8.40875 5.48625 9.08063L5.65562 9.43812H5.72062C5.96 8.67875 6.66188 8.125 7.5 8.125H8.125H8.24938C9.39125 8.125 10.5069 7.78688 11.4569 7.15375L11.875 6.875L12.2931 7.15375C13.2431 7.78688 14.3594 8.125 15.5006 8.125H15.625H16.25C17.0887 8.125 17.7906 8.67937 18.03 9.43937H18.0931L18.2625 9.0825C18.5812 8.41125 18.75 7.66312 18.75 6.92C18.75 3.44875 15.9263 0.625 12.4556 0.625Z" fill="#F0BC5E"/>
<path d="M23.125 36.875H26.875V33.125H23.125V36.875ZM24.375 34.375H25.625V35.625H24.375V34.375Z" fill="#0076BE"/>
<path d="M35 36.875C36.0338 36.875 36.875 36.0338 36.875 35C36.875 33.9662 36.0338 33.125 35 33.125C33.9662 33.125 33.125 33.9662 33.125 35C33.125 36.0338 33.9662 36.875 35 36.875ZM35 34.375C35.3444 34.375 35.625 34.6556 35.625 35C35.625 35.3444 35.3444 35.625 35 35.625C34.6556 35.625 34.375 35.3444 34.375 35C34.375 34.6556 34.6556 34.375 35 34.375Z" fill="#0076BE"/>
<path d="M28.125 35C28.125 36.0338 28.9662 36.875 30 36.875C31.0338 36.875 31.875 36.0338 31.875 35C31.875 33.9662 31.0338 33.125 30 33.125C28.9662 33.125 28.125 33.9662 28.125 35ZM30.625 35C30.625 35.3444 30.3444 35.625 30 35.625C29.6556 35.625 29.375 35.3444 29.375 35C29.375 34.6556 29.6556 34.375 30 34.375C30.3444 34.375 30.625 34.6556 30.625 35Z" fill="#0076BE"/>
<path d="M39.375 16.9494V16.5713C39.375 13.9819 37.2681 11.875 34.6787 11.875C33.365 11.875 32.13 12.42 31.25 13.3613C30.37 12.42 29.135 11.875 27.8213 11.875C25.2319 11.875 23.125 13.9819 23.125 16.5713V16.9494C23.125 18.2694 23.685 19.5357 24.6619 20.4244L29.0088 24.375H23.75C23.5244 24.375 23.3056 24.4019 23.0931 24.4475C22.7706 19.6775 19.4706 15.6675 14.805 14.4619L14.5963 14.045C15.1144 13.6319 15.5338 13.1038 15.8219 12.5H16.25C17.6287 12.5 18.75 11.3788 18.75 10C18.75 8.62128 17.6287 7.50003 16.25 7.50003H15.625H15.5006C14.4788 7.50003 13.4894 7.20065 12.64 6.63378L11.875 6.12378L11.11 6.63378C10.2606 7.20065 9.27063 7.50003 8.24938 7.50003H8.125H7.5C6.12125 7.50003 5 8.62128 5 10C5 11.3788 6.12125 12.5 7.5 12.5H7.92813C8.21625 13.1038 8.63562 13.6319 9.15375 14.045L8.945 14.4619C4.03125 15.7313 0.625 20.1107 0.625 25.2138V26.25C0.625 30.0407 3.70937 33.125 7.5 33.125H8.24C8.49875 33.8507 9.18625 34.375 10 34.375H11.875V36.25C11.875 37.9732 13.2769 39.375 15 39.375C16.7231 39.375 18.125 37.9732 18.125 36.25C18.125 35.9057 18.4056 35.625 18.75 35.625H20.625V36.25C20.625 37.9732 22.0269 39.375 23.75 39.375H36.25C37.9731 39.375 39.375 37.9732 39.375 36.25V27.5C39.375 25.7769 37.9731 24.375 36.25 24.375H33.4912L37.8375 20.4238C38.815 19.5357 39.375 18.2688 39.375 16.9494ZM17.5 10C17.5 10.6894 16.9394 11.25 16.25 11.25H16.2C16.2294 11.045 16.25 10.8375 16.25 10.625V8.75003C16.9394 8.75003 17.5 9.31065 17.5 10ZM7.5 11.25C6.81063 11.25 6.25 10.6894 6.25 10C6.25 9.31065 6.81063 8.75003 7.5 8.75003V10.625C7.5 10.8375 7.52063 11.045 7.55 11.25H7.5ZM20.625 31.875H19.375V31.4932C19.375 30.4782 18.8881 29.575 18.125 29.0019V26.875H20.6881C20.6469 27.0769 20.625 27.2863 20.625 27.5V31.875ZM14.375 30C14.375 30.3444 14.0944 30.625 13.75 30.625H10C9.65563 30.625 9.375 30.3444 9.375 30V28.75C9.375 28.4057 9.65563 28.125 10 28.125H13.75C14.0944 28.125 14.375 28.4057 14.375 28.75V30ZM13.75 31.875C13.97 31.875 14.1788 31.83 14.375 31.76V32.5C14.375 32.8444 14.0944 33.125 13.75 33.125H13.125V31.875H13.75ZM15.625 29.4875L16.5581 29.6432C17.4662 29.7944 18.125 30.5725 18.125 31.4932V31.875H15.625V29.4875ZM14.2056 16.2125L13.8931 19.6475L12.6756 18.125L14.2056 16.2125ZM8.75 10.625V8.73065C9.84062 8.64628 10.8869 8.28503 11.8038 7.6744L11.875 7.62628L11.9462 7.67378C12.8625 8.28503 13.9094 8.64565 15 8.73003V10.625C15 12.3482 13.5981 13.75 11.875 13.75C10.1519 13.75 8.75 12.3482 8.75 10.625ZM11.875 15C12.455 15 13.0081 14.8838 13.515 14.6782L13.6369 14.9219L11.875 17.1244L10.1125 14.9219L10.2344 14.6782C10.7419 14.8838 11.295 15 11.875 15ZM11.0744 18.125L9.85687 19.6475L9.54437 16.2125L11.0744 18.125ZM8.26937 15.9925L8.89313 22.8532L11.875 19.1257L14.8569 22.8532L15.4806 15.9925C19.2412 17.3938 21.7894 20.9282 21.8669 25.0232C21.64 25.1963 21.4381 25.3982 21.2663 25.6257H18.125V20.6257H16.875V28.44C16.8369 28.4325 16.8025 28.4175 16.7638 28.4113L15.535 28.2063C15.3 27.4382 14.5931 26.875 13.75 26.875H10C9.20312 26.875 8.525 27.3769 8.25437 28.0794C7.41 27.5082 6.875 26.55 6.875 25.4975V20.625H5.625V25.4975C5.625 25.5407 5.63375 25.5819 5.635 25.625H1.875V25.2138C1.875 21.0375 4.44937 17.4157 8.26937 15.9925ZM1.91188 26.875H5.85125C6.22313 27.9925 7.04125 28.9219 8.125 29.4382V31.875H7.5C4.61 31.875 2.22438 29.6832 1.91188 26.875ZM10 33.125C9.65563 33.125 9.375 32.8444 9.375 32.5V31.76C9.57125 31.83 9.78 31.875 10 31.875H11.875V33.125H10ZM18.75 34.375C17.7162 34.375 16.875 35.2163 16.875 36.25C16.875 37.2838 16.0337 38.125 15 38.125C13.9663 38.125 13.125 37.2838 13.125 36.25V34.375H13.75C14.5638 34.375 15.2513 33.8507 15.51 33.125H18.125H19.375H20.625V34.375H18.75ZM38.125 27.5V36.25C38.125 37.2838 37.2837 38.125 36.25 38.125H23.75C22.7162 38.125 21.875 37.2838 21.875 36.25V27.5C21.875 26.4663 22.7162 25.625 23.75 25.625H36.25C37.2837 25.625 38.125 26.4663 38.125 27.5ZM24.375 16.5713C24.375 14.6713 25.9212 13.125 27.8213 13.125C28.9762 13.125 30.0481 13.6988 30.6888 14.6594L31.25 15.5019L31.8112 14.6594C32.4519 13.6988 33.5238 13.125 34.6787 13.125C36.4706 13.125 37.9456 14.5 38.1087 16.25H34.5881L33.045 19.85L30.4744 15.3513L29.1594 19.2957L27.8125 17.5H24.4244C24.395 17.3188 24.375 17.135 24.375 16.9494V16.5713ZM31.9169 24.1169C31.5513 24.4494 30.9487 24.4494 30.5831 24.1169L25.5031 19.4988C25.2606 19.2782 25.0562 19.0244 24.8881 18.7494H27.1875L29.5906 21.9538L30.7756 18.3982L33.205 22.6494L35.4119 17.5H38.0756C37.9513 18.2632 37.5762 18.9725 36.9969 19.4994L31.9169 24.1169Z" fill="#0076BE"/>
<path d="M11.25 20.625H12.5V25.625H11.25V20.625Z" fill="#0076BE"/>
</svg>
