<svg width="40" height="40" viewBox="0 0 40 40" fill="none" xmlns="http://www.w3.org/2000/svg">
<path d="M21.2899 32.2581C18.8002 32.2581 16.7738 30.2316 16.7738 27.742C16.7738 25.2523 18.8002 23.2258 21.2899 23.2258C23.7796 23.2258 25.806 25.2523 25.806 27.742C25.806 30.2316 23.7796 32.2581 21.2899 32.2581ZM21.2899 25.8065C20.2228 25.8065 19.3544 26.6749 19.3544 27.742C19.3544 28.8091 20.2228 29.6774 21.2899 29.6774C22.357 29.6774 23.2254 28.8091 23.2254 27.742C23.2254 26.6749 22.357 25.8065 21.2899 25.8065Z" fill="#F0BC5E"/>
<path d="M34.6071 25.0871C34.4768 25.1316 34.3394 25.1613 34.1935 25.1613C33.7497 25.1613 33.3581 24.9368 33.1258 24.5948C32.8432 24.5471 32.5542 24.5161 32.2581 24.5161C29.4123 24.5161 27.0968 26.8316 27.0968 29.6774C27.0968 32.5232 29.4123 34.8387 32.2581 34.8387C35.1039 34.8387 37.4194 32.5232 37.4194 29.6774C37.4194 27.678 36.2742 25.9439 34.6071 25.0871ZM32.2581 31.6129C31.191 31.6129 30.3226 30.7445 30.3226 29.6774C30.3226 28.6103 31.191 27.7419 32.2581 27.7419C33.3252 27.7419 34.1935 28.6103 34.1935 29.6774C34.1935 30.7445 33.3252 31.6129 32.2581 31.6129Z" fill="#F0BC5E"/>
<path d="M28.1957 14.2168C27.9693 14.5884 27.5641 14.8387 27.097 14.8387C26.7467 14.8387 26.4299 14.6981 26.1976 14.4716C24.4673 15.1045 23.226 16.7626 23.226 18.7097C23.226 21.1994 25.2525 23.2258 27.7422 23.2258C30.2318 23.2258 32.2583 21.1994 32.2583 18.7097C32.2583 16.3729 30.4738 14.4452 28.1957 14.2168ZM27.7422 20C27.0305 20 26.4518 19.4213 26.4518 18.7097C26.4518 17.9981 27.0305 17.4194 27.7422 17.4194C28.4538 17.4194 29.0325 17.9981 29.0325 18.7097C29.0325 19.4213 28.4538 20 27.7422 20Z" fill="#F0BC5E"/>
<path d="M21.2903 25.8065C20.2232 25.8065 19.3548 26.6748 19.3548 27.7419C19.3548 28.809 20.2232 29.6774 21.2903 29.6774C22.3574 29.6774 23.2258 28.809 23.2258 27.7419C23.2258 26.6748 22.3574 25.8065 21.2903 25.8065ZM21.2903 28.3871C20.9342 28.3871 20.6452 28.0981 20.6452 27.7419C20.6452 27.3858 20.9342 27.0968 21.2903 27.0968C21.6465 27.0968 21.9355 27.3858 21.9355 27.7419C21.9355 28.0981 21.6465 28.3871 21.2903 28.3871Z" fill="white"/>
<path d="M25.8065 33.5484C24.7394 33.5484 23.871 34.4168 23.871 35.4839C23.871 36.551 24.7394 37.4194 25.8065 37.4194C26.8736 37.4194 27.7419 36.551 27.7419 35.4839C27.7419 34.4168 26.8736 33.5484 25.8065 33.5484ZM25.8065 36.129C25.4503 36.129 25.1613 35.84 25.1613 35.4839C25.1613 35.1278 25.4503 34.8387 25.8065 34.8387C26.1626 34.8387 26.4516 35.1278 26.4516 35.4839C26.4516 35.84 26.1626 36.129 25.8065 36.129Z" fill="white"/>
<path d="M32.2581 32.2581C33.6813 32.2581 34.8387 31.1007 34.8387 29.6774C34.8387 28.2542 33.6813 27.0968 32.2581 27.0968C30.8348 27.0968 29.6774 28.2542 29.6774 29.6774C29.6774 31.1007 30.8348 32.2581 32.2581 32.2581ZM32.2581 28.3871C32.9697 28.3871 33.5484 28.9658 33.5484 29.6774C33.5484 30.3891 32.9697 30.9678 32.2581 30.9678C31.5464 30.9678 30.9677 30.3891 30.9677 29.6774C30.9677 28.9658 31.5464 28.3871 32.2581 28.3871Z" fill="white"/>
<path d="M34.1935 25.8065C35.2606 25.8065 36.129 24.9381 36.129 23.871C36.129 22.8039 35.2606 21.9355 34.1935 21.9355C33.1264 21.9355 32.2581 22.8039 32.2581 23.871C32.2581 24.9381 33.1264 25.8065 34.1935 25.8065ZM34.1935 23.2258C34.5497 23.2258 34.8387 23.5148 34.8387 23.871C34.8387 24.2271 34.5497 24.5161 34.1935 24.5161C33.8374 24.5161 33.5484 24.2271 33.5484 23.871C33.5484 23.5148 33.8374 23.2258 34.1935 23.2258Z" fill="white"/>
<path d="M25.8065 18.7097C25.8065 19.7768 26.6748 20.6451 27.7419 20.6451C28.809 20.6451 29.6774 19.7768 29.6774 18.7097C29.6774 17.6426 28.809 16.7742 27.7419 16.7742C26.6748 16.7742 25.8065 17.6426 25.8065 18.7097ZM28.3871 18.7097C28.3871 19.0651 28.0981 19.3548 27.7419 19.3548C27.3858 19.3548 27.0968 19.0651 27.0968 18.7097C27.0968 18.3542 27.3858 18.0645 27.7419 18.0645C28.0981 18.0645 28.3871 18.3542 28.3871 18.7097Z" fill="white"/>
<path d="M25.1613 13.5484C25.1613 14.6155 26.0297 15.4839 27.0968 15.4839C28.1639 15.4839 29.0323 14.6155 29.0323 13.5484C29.0323 12.4813 28.1639 11.6129 27.0968 11.6129C26.0297 11.6129 25.1613 12.4813 25.1613 13.5484ZM27.7419 13.5484C27.7419 13.9039 27.4529 14.1936 27.0968 14.1936C26.7406 14.1936 26.4516 13.9039 26.4516 13.5484C26.4516 13.1929 26.7406 12.9032 27.0968 12.9032C27.4529 12.9032 27.7419 13.1929 27.7419 13.5484Z" fill="white"/>
<path d="M22.5806 20.6451C22.5806 19.578 21.7123 18.7097 20.6452 18.7097C19.5781 18.7097 18.7097 19.578 18.7097 20.6451C18.7097 21.7122 19.5781 22.5806 20.6452 22.5806C21.7123 22.5806 22.5806 21.7122 22.5806 20.6451ZM20 20.6451C20 20.2897 20.289 20 20.6452 20C21.0013 20 21.2903 20.2897 21.2903 20.6451C21.2903 21.0013 21.0013 21.2903 20.6452 21.2903C20.289 21.2903 20 21.0013 20 20.6451Z" fill="white"/>
<path d="M10.9677 10.3226H9.67741C8.61032 10.3226 7.74193 11.191 7.74193 12.2581V14.8387C7.74193 15.9058 8.61032 16.7742 9.67741 16.7742H10.9677C12.0348 16.7742 12.9032 15.9058 12.9032 14.8387V12.2581C12.9032 11.191 12.0348 10.3226 10.9677 10.3226ZM11.6129 14.8387C11.6129 15.1942 11.3239 15.4839 10.9677 15.4839H9.67741C9.32128 15.4839 9.03225 15.1942 9.03225 14.8387V12.2581C9.03225 11.9026 9.32128 11.6129 9.67741 11.6129H10.9677C11.3239 11.6129 11.6129 11.9026 11.6129 12.2581V14.8387Z" fill="white"/>
<path d="M16.7742 6.4516H14.1935V7.74192H16.7742V9.03224H15.4839C14.7723 9.03224 14.1935 9.61095 14.1935 10.3226V11.6129C14.1935 12.3245 14.7723 12.9032 15.4839 12.9032H18.0645V11.6129H15.4839V10.3226H16.7742C17.4858 10.3226 18.0645 9.74386 18.0645 9.03224V7.74192C18.0645 7.03031 17.4858 6.4516 16.7742 6.4516Z" fill="white"/>
<path d="M40 14.8387C40 11.2813 37.1058 8.3871 33.5484 8.3871C33.2697 8.3871 32.9948 8.40903 32.7232 8.44387C31.831 3.58645 27.591 0 22.5806 0C20.2787 0 18.0516 0.767097 16.2458 2.17226C15.4168 1.41032 13.4587 0 10.3226 0C5.34194 0 1.29032 4.05161 1.29032 9.03226C1.29032 10.3794 1.59161 11.709 2.16581 12.9155C1.33097 13.4232 0 14.5768 0 16.7742C0 19.2645 2.02645 21.2903 4.51613 21.2903H15.5226C14.7084 23.2239 14.1935 25.1942 14.1935 27.0968C14.1935 34.2116 19.9819 40 27.0968 40C34.2116 40 40 34.2116 40 27.0968C40 24.6374 39.1439 22.0652 37.8845 19.6058C39.231 18.3839 40 16.6794 40 14.8387ZM38.7097 14.8387C38.7097 16.2013 38.1819 17.471 37.2497 18.4277C35.4594 15.289 33.1045 12.4026 31.1581 10.2677C31.8923 9.88258 32.7052 9.67742 33.5484 9.67742C36.3942 9.67742 38.7097 11.9929 38.7097 14.8387ZM4.51613 20C2.73742 20 1.29032 18.5529 1.29032 16.7742C1.29032 14.5626 3.18194 13.8303 3.25871 13.8019L3.98194 13.5413L3.59935 12.8742C2.9329 11.711 2.58065 10.3826 2.58065 9.03226C2.58065 4.76323 6.05355 1.29032 10.3226 1.29032C13.8845 1.29032 15.6252 3.36581 15.6955 3.45161L16.1174 3.97677L16.6239 3.53226C18.271 2.08645 20.3871 1.29032 22.5806 1.29032C26.9832 1.29032 30.7065 4.45548 31.4645 8.73355C31.0432 8.87742 30.6374 9.06452 30.251 9.29484C28.7677 7.73677 27.6735 6.7471 27.5271 6.61613L27.0968 6.23097L26.6665 6.61613C26.2858 6.95677 19.509 13.0806 16.1084 20H4.51613ZM27.0968 38.7097C20.6935 38.7097 15.4839 33.5 15.4839 27.0968C15.4839 19.4013 24.9465 10.0116 27.0968 7.97742C29.2471 10.0103 38.7097 19.3968 38.7097 27.0968C38.7097 33.5 33.5 38.7097 27.0968 38.7097Z" fill="white"/>
</svg>
