<svg width="40" height="40" viewBox="0 0 40 40" fill="none" xmlns="http://www.w3.org/2000/svg">
<g clip-path="url(#clip0_12_85)">
<path d="M21.6377 37.0367H21.638L36.0191 37.0301C36.5766 37.0301 37.0302 36.5765 37.0302 36.0189V8.51234C37.0302 7.95601 36.5766 7.50336 36.0191 7.50336H30.5867C30.263 7.50336 30.0008 7.7657 30.0008 8.08929V8.20445C30.0008 13.7198 25.5139 18.207 19.9988 18.207C14.4837 18.207 9.99695 13.7198 9.99695 8.20445C9.99695 8.19109 9.99742 8.17734 9.99781 8.16359C9.99859 8.13859 9.99922 8.11359 9.99922 8.08929C9.99922 7.7657 9.73687 7.50336 9.41328 7.50336H3.97867C3.42109 7.50336 2.9675 7.95601 2.9675 8.51234V36.0189C2.9675 36.5765 3.42109 37.0301 3.97844 37.0301L18.9334 37.0367C18.9335 37.0367 18.9354 37.0301 18.9355 37.0301C19.259 37.0301 19.5212 36.7679 19.5214 36.4444C19.5216 36.1208 19.2593 35.8583 18.9357 35.8581L4.13937 35.8582V8.67531H8.83476C9.08211 14.6196 13.9952 19.379 19.9987 19.379C26.0025 19.379 30.9155 14.6197 31.1628 8.67531H35.8582V35.8582L21.6373 35.8648C21.3137 35.8649 21.0515 36.1274 21.0516 36.451C21.0519 36.7746 21.3142 37.0368 21.6377 37.0367Z" fill="#0076BE"/>
<path d="M20.6943 6.33257C20.3826 6.21687 20.0547 6.18109 19.7346 6.22414L18.9504 4.51218C18.8157 4.21796 18.4679 4.08875 18.1737 4.22343C17.8794 4.3582 17.7502 4.70601 17.885 5.00023L18.6701 6.71421C18.0332 7.28336 17.8098 8.22336 18.1841 9.0382C18.4069 9.5232 18.805 9.89226 19.3051 10.0775C19.5312 10.1612 19.7657 10.2029 19.9998 10.2029C20.2834 10.2029 20.5662 10.1416 20.8312 10.0199C21.3156 9.7989 21.6848 9.40187 21.8708 8.90211C22.0572 8.40086 22.037 7.85703 21.8139 7.37156C21.5923 6.88734 21.1947 6.51836 20.6943 6.33257ZM20.7723 8.49351C20.6958 8.69937 20.5439 8.86281 20.3434 8.95429C20.1429 9.0464 19.9187 9.055 19.7122 8.97859C19.5057 8.90203 19.3412 8.74953 19.2491 8.54906C19.0595 8.13609 19.2416 7.645 19.6551 7.45437C19.8553 7.36265 20.0795 7.35437 20.2864 7.43125C20.4931 7.50796 20.6571 7.65992 20.7487 7.86C20.8411 8.06117 20.8495 8.28617 20.7723 8.49351Z" fill="#F0BC5E"/>
<path d="M39.4141 21.0909C39.7377 21.0909 40 20.8286 40 20.505V7.93656C40 6.06016 38.4734 4.53352 36.5971 4.53352H27.3363C26.9504 3.76555 26.4473 3.06617 25.8507 2.45891C25.8354 2.43898 25.8191 2.41961 25.8009 2.40141C25.7828 2.38336 25.7636 2.36734 25.7439 2.35211C24.2625 0.898203 22.2337 0 19.9988 0C17.7667 0 15.7403 0.896484 14.2598 2.34781C14.2378 2.3643 14.2165 2.38188 14.1966 2.4018C14.1766 2.4218 14.159 2.44313 14.1425 2.46508C13.5487 3.07094 13.0479 3.76805 12.6634 4.53344H3.40289C1.52656 4.53352 0 6.06008 0 7.93656V36.597C0 38.4734 1.52656 40 3.40289 40H36.5971C38.4734 40 40 38.4734 40 36.597V23.2113C40 22.8877 39.7377 22.6254 39.4141 22.6254C39.0904 22.6254 38.8281 22.8877 38.8281 23.2113V36.597C38.8281 37.8272 37.8273 38.828 36.5972 38.828H3.40289C2.17266 38.828 1.17188 37.8272 1.17188 36.597V7.93656C1.17188 6.70633 2.17266 5.70547 3.40281 5.70547H12.1844C11.9317 6.49383 11.7948 7.33344 11.7948 8.20461C11.7948 10.4398 12.693 12.4688 14.147 13.9502C14.1621 13.9698 14.1781 13.9889 14.196 14.0068C14.2141 14.0249 14.2334 14.0411 14.253 14.0563C15.7342 15.5119 17.7634 16.4112 19.9987 16.4112C22.237 16.4112 24.2686 15.5101 25.7505 14.0519C25.768 14.038 25.785 14.0234 25.8011 14.0072C25.8173 13.991 25.832 13.9741 25.8459 13.9566C27.3039 12.4745 28.2051 10.4429 28.2051 8.20445C28.2051 7.33328 28.068 6.49367 27.8153 5.70531H36.597C37.8273 5.70531 38.828 6.70617 38.828 7.93641V20.5048C38.8281 20.8286 39.0904 21.0909 39.4141 21.0909ZM25.3675 12.7447L24.7915 12.1687C24.5626 11.9398 24.1916 11.9398 23.9628 12.1687C23.7339 12.3975 23.7339 12.7685 23.9627 12.9973L24.5388 13.5734C23.4527 14.4934 22.0848 15.0905 20.5848 15.2148V14.3946C20.5848 14.071 20.3225 13.8087 19.9989 13.8087C19.6752 13.8087 19.413 14.071 19.413 14.3946V15.2147C17.9134 15.0903 16.546 14.4933 15.4602 13.5732L16.0369 12.9977C16.2659 12.7691 16.2663 12.3981 16.0377 12.1691C15.8091 11.9399 15.4381 11.9396 15.2091 12.1681L14.6317 12.7442C13.7123 11.658 13.1156 10.2903 12.9914 8.79039H13.8093C14.133 8.79039 14.3952 8.52805 14.3952 8.20445C14.3952 7.88086 14.133 7.61852 13.8093 7.61852H12.9914C13.1157 6.11906 13.7124 4.75172 14.632 3.66586L15.2086 4.24258C15.323 4.35703 15.473 4.41422 15.623 4.41422C15.7729 4.41422 15.9229 4.35703 16.0373 4.24258C16.2662 4.01375 16.2662 3.64273 16.0373 3.41391L15.4606 2.83719C16.5464 1.91758 17.9136 1.32086 19.413 1.19656V2.01445C19.413 2.33805 19.6753 2.60039 19.9989 2.60039C20.3226 2.60039 20.5848 2.33805 20.5848 2.01445V1.19656C22.0847 1.32078 23.4523 1.9175 24.5384 2.83703L23.9623 3.41445C23.7337 3.64352 23.7342 4.01453 23.9633 4.24312C24.0777 4.35727 24.2274 4.4143 24.3772 4.4143C24.5273 4.4143 24.6776 4.35695 24.792 4.24219L25.3673 3.66555C26.2873 4.75148 26.8844 6.11891 27.0088 7.61859H26.1887C25.865 7.61859 25.6027 7.88094 25.6027 8.20453C25.6027 8.52812 25.8651 8.79047 26.1887 8.79047H27.0088C26.8844 10.2906 26.2874 11.6584 25.3675 12.7447Z" fill="#0076BE"/>
<path d="M28.3979 32.2849V29.1888C28.3979 28.6422 27.9532 28.1975 27.4067 28.1975H12.5911C12.0445 28.1975 11.5999 28.6422 11.5999 29.1888V32.2849C11.5999 32.8315 12.0445 33.2762 12.5911 33.2762H27.4067C27.9533 33.2762 28.3979 32.8315 28.3979 32.2849ZM27.226 32.1042H12.7718V29.3695H27.226V32.1042Z" fill="#F0BC5E"/>
</g>
<defs>
<clipPath id="clip0_12_85">
<rect width="40" height="40" fill="white"/>
</clipPath>
</defs>
</svg>
