<svg width="26" height="26" viewBox="0 0 26 26" fill="none" xmlns="http://www.w3.org/2000/svg">
<path d="M12.9998 0C5.83236 0 0 5.83167 0 13.0005C0 20.1686 5.83236 25.9999 12.9998 25.9999C20.1677 25.9999 26 20.1685 26 13.0005C26 5.83167 20.1676 0 12.9998 0ZM15.9397 10.49C16.6326 10.49 17.1946 11.0525 17.1946 11.745C17.1946 12.4375 16.6327 13.0001 15.9397 13.0001C15.2469 13.0001 14.6841 12.4375 14.6841 11.745C14.6841 11.0526 15.2469 10.49 15.9397 10.49ZM10.0602 10.49C10.7535 10.49 11.3161 11.0525 11.3161 11.745C11.3161 12.4375 10.7535 13.0001 10.0602 13.0001C9.36728 13.0001 8.80566 12.4375 8.80566 11.745C8.80566 11.0526 9.36728 10.49 10.0602 10.49ZM21.7675 15.5887C20.6304 19.447 17.0254 22.1407 12.9998 22.1407C8.94096 22.1407 5.42409 19.5322 4.25057 15.6503C4.09776 15.1459 4.38139 14.6164 4.88423 14.4645C5.38791 14.3112 5.91875 14.5956 6.0704 15.0995C6.98544 18.125 9.83626 20.2389 12.9993 20.2389C16.1867 20.2389 19.0422 18.1046 19.943 15.0518C20.0917 14.5474 20.6183 14.2547 21.1237 14.4084C21.6276 14.5567 21.917 15.0866 21.7675 15.5887Z" fill="#3F3D56"/>
</svg>
