<svg width="12" height="29" viewBox="0 0 12 29" fill="none" xmlns="http://www.w3.org/2000/svg">
<g clip-path="url(#clip0_12_156)">
<path d="M1.02882 17.5935C1.04778 17.5935 1.06674 17.5929 1.08594 17.5918C1.61505 17.5608 2.01878 17.1066 1.98782 16.5773C1.94103 15.7795 1.91967 15.0526 1.91967 14.3912C1.91571 11.4861 2.33912 9.85381 2.75521 9.00196V12.9435V15.2159V26.9739C2.75521 27.7934 3.41954 28.4572 4.23852 28.4572C5.05774 28.4572 5.72207 27.7934 5.72207 26.9739V16.1433H6.27817V26.9739C6.27817 27.7934 6.9425 28.4572 7.76148 28.4572C8.5807 28.4572 9.24503 27.7934 9.24503 26.9739V15.2159V12.9435V9.007C9.31606 9.15289 9.3878 9.32026 9.45859 9.51547C9.79681 10.4529 10.0812 11.9905 10.0801 14.3912C10.0801 15.0529 10.059 15.7797 10.0124 16.5776C9.98146 17.1068 10.3854 17.5608 10.9147 17.5918C10.9337 17.5929 10.9527 17.5935 10.9717 17.5935C11.4763 17.5935 11.8992 17.1994 11.929 16.6894C11.9773 15.8577 11.9996 15.0937 11.9999 14.3912C11.995 10.7699 11.4164 8.76572 10.628 7.56052C10.2339 6.9623 9.77282 6.57873 9.34677 6.36612C9.06854 6.22575 8.81346 6.15976 8.6101 6.13048C8.51807 6.10001 8.42005 6.08273 8.3177 6.08273H3.68241C3.58019 6.08273 3.48217 6.09989 3.39014 6.13036C3.18666 6.15964 2.93158 6.22563 2.65311 6.36612C2.00774 6.68611 1.31198 7.38619 0.8251 8.62654C0.332583 9.87193 0.00167971 11.6725 0 14.3912C0 15.0937 0.0225562 15.8577 0.0713879 16.6897C0.101263 17.1997 0.524191 17.5935 1.02882 17.5935Z" fill="#3F3D56"/>
<path d="M8.62896 3.31199C8.96703 1.86025 8.06422 0.409327 6.61248 0.0712559C5.16074 -0.266815 3.70982 0.635992 3.37174 2.08773C3.03367 3.53947 3.93648 4.9904 5.38822 5.32847C6.83996 5.66654 8.29089 4.76373 8.62896 3.31199Z" fill="#3F3D56"/>
</g>
<defs>
<clipPath id="clip0_12_156">
<rect width="12" height="28.4571" fill="white"/>
</clipPath>
</defs>
</svg>
