<svg width="40" height="40" viewBox="0 0 40 40" fill="none" xmlns="http://www.w3.org/2000/svg">
<path d="M1.23137 34.9739C1.54325 34.8863 1.72667 34.5571 1.64061 34.2384C0.86546 31.3645 1.04368 26.9763 2.18534 20.8232C2.93546 16.7801 4.14396 13.2819 5.77756 10.4254C6.95157 8.37262 8.31357 6.69392 9.82602 5.43544C10.7885 4.63425 12.1518 4.62117 13.1411 5.40398C13.8824 5.99023 14.2633 6.9126 14.1595 7.87079C13.9465 9.84355 14.0359 12.7194 15.6033 15.4288C15.3909 15.6961 15.1535 15.9842 14.8886 16.2929C14.888 16.2936 14.8874 16.2945 14.8867 16.2951C14.3139 16.9673 13.7057 17.6041 13.0887 18.2339C12.9376 18.3881 11.1474 20.1447 11.1032 20.0995C10.6762 19.6584 10.1776 19.0971 9.68564 18.438C9.69266 17.8698 9.74698 16.1724 10.13 15.0429C10.2359 14.7307 10.0735 14.39 9.76773 14.2822C9.46195 14.1741 9.12839 14.3395 9.02249 14.6516C8.80338 15.2974 8.67826 16.0736 8.60685 16.7692C8.19944 16.0263 7.85062 15.2139 7.6251 14.3504C7.54148 14.0314 7.22043 13.8414 6.90793 13.9267C6.59513 14.0118 6.40928 14.3395 6.49259 14.6588C6.78983 15.797 7.27567 16.849 7.83109 17.7829C7.06571 17.7062 6.10563 17.7262 5.22794 18.0828C4.92735 18.205 4.78056 18.5529 4.90049 18.8597C5.01768 19.161 5.3668 19.3142 5.6616 19.1943C6.8234 18.7221 8.27085 19.0339 8.75363 19.161C9.25595 19.8344 9.76285 20.4113 10.2038 20.8724C9.98135 21.059 9.76468 21.2549 9.55441 21.4605C8.7042 22.2922 7.95652 23.2781 7.31656 24.4104C6.49625 23.7099 5.45988 22.6305 5.06101 21.3898C4.96 21.0761 4.62888 20.9051 4.32127 21.0082C4.01395 21.1113 3.84641 21.4493 3.94743 21.763C4.11527 22.2847 4.36552 22.7757 4.66367 23.2314C4.15769 23.3046 3.54765 23.4507 2.9495 23.7382C2.65653 23.8787 2.5308 24.2351 2.66874 24.5338C2.80424 24.8282 3.16007 24.959 3.44846 24.8204C4.27 24.426 5.14707 24.3643 5.5496 24.3587C5.94511 24.788 6.36381 25.168 6.76084 25.4929C6.50571 26.0356 6.27103 26.6053 6.05985 27.2043C5.7739 28.0149 5.55204 28.8083 5.37962 29.5543C5.18644 29.4951 4.9835 29.4397 4.77323 29.3908C4.60661 29.0877 4.3057 28.4559 4.23826 27.7386C4.20744 27.4099 3.92149 27.1685 3.59922 27.2003C3.27696 27.2317 3.04075 27.5239 3.07157 27.8526C3.11888 28.3569 3.24949 28.8201 3.39445 29.2032C2.99192 29.1911 2.58512 29.2198 2.18931 29.3092C1.87315 29.3808 1.67387 29.7001 1.74375 30.0225C1.81395 30.3452 2.12675 30.5486 2.44261 30.4773C3.33097 30.2764 4.33561 30.4726 5.13975 30.7302C5.00272 31.4984 4.91758 32.1859 4.866 32.7466C4.78513 33.6201 5.42753 34.4424 6.29087 34.5122C7.04984 34.5736 7.78287 34.0188 7.94156 33.2575C7.98856 33.0323 8.04959 32.7634 8.1265 32.46C8.74967 33.0285 9.44913 33.8235 9.73691 34.7178C9.83609 35.0268 10.1742 35.201 10.4763 35.0997C10.784 34.9966 10.9512 34.6586 10.8502 34.3446C10.7238 33.9521 10.5429 33.5805 10.3274 33.2319C10.7235 33.164 11.1795 33.0422 11.6275 32.827C11.9204 32.6865 12.0459 32.3301 11.9082 32.0311C11.7703 31.732 11.4212 31.604 11.1285 31.7445C10.4904 32.0513 9.80832 32.1096 9.46653 32.1177C9.14579 31.7732 8.80857 31.4673 8.48783 31.2044C8.99503 29.6266 9.84616 27.6211 11.2301 25.8181C11.4135 26.1038 11.6232 26.4022 11.86 26.7044C11.7788 27.3806 11.6336 29.1699 12.1389 30.6007C12.247 30.9066 12.59 31.0704 12.8891 30.9604C13.1933 30.8483 13.3514 30.5056 13.2415 30.1951C12.9867 29.4733 12.9364 28.6036 12.9513 27.903C13.381 28.308 13.8665 28.6958 14.4149 29.0416C14.682 29.2098 15.0518 29.1272 15.2215 28.8466C15.3915 28.5656 15.3061 28.1971 15.0305 28.0236C13.5891 27.1152 12.6257 25.868 12.0291 24.8702C12.2781 24.6014 12.5396 24.3397 12.8174 24.089C14.3078 22.743 15.5438 21.8443 16.5368 21.1219C16.6299 21.0543 16.7205 20.9882 16.81 20.9228C17.1176 22.4374 17.4984 24.9553 17.4984 29.4649C17.4984 33.7076 16.9473 36.161 15.7119 37.4201C14.3469 38.8116 12.0114 38.8079 8.77927 38.8032C6.39646 38.8032 3.87785 38.4836 2.48564 36.2551C2.31169 35.9766 1.94944 35.8947 1.67662 36.0722C1.40379 36.2498 1.32353 36.6199 1.49748 36.8983C2.80088 38.9845 4.98777 39.9988 8.18296 39.9988C8.56992 39.9988 8.95688 40 9.34384 40C12.5662 40 14.9243 39.9134 16.5402 38.2668C18.0133 36.765 18.6706 34.0506 18.6706 29.4649C18.6706 24.2615 18.1713 21.6268 17.8427 20.14C18.4793 19.6242 18.9712 19.1251 19.3115 18.5024C19.4452 18.2582 19.6923 18.1065 19.9566 18.1065H20.039C20.3036 18.1065 20.5508 18.2582 20.6842 18.5024C21.0244 19.1251 21.5164 19.6242 22.153 20.14C21.8246 21.6268 21.3253 24.2615 21.3253 29.4649C21.3253 34.0506 21.9824 36.765 23.4558 38.2668C25.0714 39.9137 27.4292 40 30.6518 40C31.0388 40 31.4257 39.9988 31.8127 39.9988C34.663 39.9988 36.697 39.2001 38.0303 37.5569C39.1808 36.1395 39.8135 34.1035 39.9642 31.3324C40.1156 28.5612 39.7875 25.0506 38.9617 20.6004C38.1719 16.3431 36.8835 12.6602 35.1327 9.65384C34.9673 9.36975 34.6075 9.27661 34.3295 9.44544C34.0512 9.61428 33.9599 9.98123 34.125 10.2653C35.8062 13.1514 37.0458 16.7035 37.8103 20.8228C39.3691 29.2244 39.1522 34.2995 37.1279 36.794C35.6741 38.5851 33.3392 38.7998 31.2167 38.8032C27.9846 38.8079 25.6488 38.8116 24.2837 37.4201C23.0484 36.161 22.4975 33.7076 22.4975 29.4649C22.4975 24.9553 22.8784 22.4374 23.186 20.9228C23.2754 20.9882 23.366 21.0543 23.4591 21.1219C24.7409 22.0542 25.9988 23.0236 27.1783 24.089C27.456 24.3397 27.7178 24.6014 27.9666 24.8702C27.3703 25.8677 26.4068 27.1152 24.9652 28.0236C24.6899 28.1971 24.6044 28.5656 24.7744 28.8466C24.942 29.1238 25.3094 29.2126 25.5807 29.0416C26.1297 28.6958 26.6152 28.3074 27.0455 27.9021C27.0605 28.6014 27.0101 29.4705 26.7544 30.1948C26.6195 30.5767 26.9085 30.996 27.3056 30.996C27.5457 30.996 27.7706 30.8443 27.857 30.6007C28.3621 29.1699 28.2171 27.3806 28.1359 26.7044C28.3728 26.4019 28.5824 26.1035 28.7655 25.8181C30.1498 27.6211 31.0009 29.6266 31.5081 31.2044C31.1874 31.4673 30.8502 31.7732 30.5294 32.1177C30.1876 32.1096 29.5059 32.0513 28.8674 31.7445C28.5745 31.604 28.2257 31.7324 28.0877 32.0311C27.9501 32.3301 28.0755 32.6865 28.3685 32.827C28.8165 33.0422 29.2727 33.164 29.6685 33.2319C29.4531 33.5805 29.2721 33.9521 29.1458 34.3446C29.0448 34.6586 29.212 34.9966 29.5196 35.0997C29.8171 35.1994 30.1583 35.0312 30.259 34.7178C30.5468 33.8235 31.2463 33.0285 31.8695 32.46C31.9464 32.7634 32.0074 33.0323 32.0544 33.2575C32.0544 33.2584 32.0547 33.259 32.055 33.26C32.2137 34.0166 32.9492 34.573 33.7051 34.5122C34.6096 34.4393 35.2084 33.5631 35.1232 32.6787C35.071 32.1305 34.9877 31.4682 34.8562 30.7302C35.66 30.4726 36.665 30.2764 37.5533 30.4773C37.8692 30.5486 38.182 30.3449 38.2519 30.0225C38.3221 29.7001 38.1225 29.3808 37.8066 29.3092C37.4108 29.2198 37.004 29.1911 36.6015 29.2032C36.7465 28.8201 36.8771 28.3569 36.9244 27.8526C36.9552 27.5239 36.719 27.2317 36.3967 27.2003C36.0742 27.1685 35.7885 27.4099 35.7577 27.7386C35.6903 28.4575 35.39 29.0874 35.2227 29.3908C35.0125 29.4397 34.8095 29.4951 34.6163 29.554C34.4439 28.8083 34.222 28.0145 33.9361 27.2043C33.8827 27.0529 33.2147 25.5094 33.2351 25.4929C33.6325 25.1677 34.0512 24.7874 34.447 24.3581C34.847 24.3622 35.7186 24.4226 36.5475 24.8204C36.8307 24.9565 37.1896 24.8325 37.3272 24.5338C37.4648 24.2351 37.3394 23.8787 37.0465 23.7379C36.4483 23.4507 35.8383 23.3046 35.3323 23.2314C35.6304 22.7757 35.8807 22.2847 36.0482 21.763C36.1492 21.4493 35.982 21.1113 35.6744 21.0082C35.3671 20.9051 35.036 21.0758 34.9349 21.3898C34.5358 22.6305 33.4997 23.7099 32.6791 24.4107C31.8811 22.9981 30.9152 21.814 29.7918 20.8724C30.2331 20.4113 30.7403 19.8341 31.2426 19.1603C31.7248 19.032 33.1655 18.7192 34.3344 19.1943C34.631 19.3148 34.9774 19.1628 35.0955 18.8597C35.2151 18.5529 35.0686 18.205 34.7677 18.0828C33.89 17.7262 32.9302 17.7062 32.1649 17.7829C32.7203 16.8493 33.2058 15.797 33.5034 14.6588C33.5867 14.3398 33.4008 14.0118 33.088 13.9267C32.7755 13.8417 32.4542 14.0314 32.3709 14.3507C32.1453 15.2139 31.7965 16.0266 31.3891 16.7692C31.3177 16.0736 31.1926 15.2974 30.9735 14.6516C30.8676 14.3395 30.534 14.1741 30.2279 14.2822C29.9221 14.3903 29.7601 14.7307 29.866 15.0432C30.249 16.1727 30.303 17.8698 30.3103 18.438C29.8184 19.0971 29.3197 19.6584 28.8925 20.0998C28.8793 20.088 28.8656 20.0762 28.8525 20.0646C27.72 19.0653 26.6961 17.9763 25.6399 16.8979C25.1525 16.3574 24.739 15.8643 24.3927 15.4291C25.96 12.719 26.0495 9.84355 25.8361 7.87079C25.7327 6.9126 26.1135 5.99023 26.8548 5.40398C27.8442 4.62117 29.2071 4.63425 30.1699 5.43544C31.1425 6.24473 32.0666 7.2456 32.9168 8.41031C33.11 8.67509 33.4771 8.72992 33.7365 8.53242C33.9962 8.33524 34.0499 7.9605 33.8564 7.69541C32.9489 6.4522 31.9576 5.37969 30.9106 4.5081C29.5227 3.35335 27.5598 3.33279 26.1367 4.45825C25.0704 5.30181 24.5227 6.62664 24.6713 8.00193C24.8535 9.68748 24.7949 12.0945 23.6132 14.3981C23.5687 14.3358 23.5257 14.275 23.486 14.218C23.1582 13.7476 22.9849 13.1956 22.9849 12.6215V1.64474C22.9849 0.737954 22.2619 0 21.3736 0H18.6227C17.7343 0 17.0114 0.737954 17.0114 1.64474V12.6215C17.0114 13.1956 16.838 13.7476 16.5103 14.218C16.4706 14.275 16.4276 14.3358 16.383 14.3981C15.2017 12.0945 15.1428 9.68748 15.325 8.00193C15.4736 6.62664 14.9258 5.30181 13.8595 4.45825C12.4365 3.33279 10.4736 3.35335 9.08597 4.5081C7.46427 5.85753 6.01102 7.64526 4.76591 9.82236C3.06455 12.7969 1.80906 16.4231 1.03422 20.6004C-0.141924 26.9371 -0.312822 31.5022 0.510846 34.5561C0.5966 34.8745 0.919171 35.0617 1.23137 34.9739ZM17.4649 14.9114C17.9348 14.2376 18.1829 13.4458 18.1829 12.6215V1.64474C18.1829 1.39741 18.3801 1.19649 18.6224 1.19649H21.3732C21.6156 1.19649 21.8127 1.39741 21.8127 1.64474V12.6215C21.8127 13.4458 22.0608 14.2376 22.5305 14.9114C23.5217 16.3334 24.6682 17.6427 25.8761 18.8753C27.098 20.1226 28.4902 21.1795 29.7225 22.4162C32.9589 25.6649 33.7637 30.7175 33.9617 32.8472C33.962 32.851 33.9623 32.855 33.9627 32.8588C33.9828 33.0759 33.8326 33.3014 33.6117 33.3195C33.6077 33.3198 33.6038 33.3192 33.5998 33.3195C33.4109 33.3288 33.2397 33.1977 33.2003 33.0086C33.0758 32.4108 32.9425 31.7943 32.7407 31.2181C31.914 28.888 30.9982 26.6907 29.4335 24.7587C27.9452 22.9211 26.0275 21.5212 24.1388 20.1475C23.2809 19.5232 22.2357 18.8862 21.7074 17.9199C20.9835 16.5948 19.013 16.5926 18.2879 17.9196C17.7588 18.8881 16.7178 19.5208 15.8566 20.1475C14.8413 20.8858 13.5778 21.805 12.041 23.1928C9.88706 25.1378 8.41367 27.7685 7.47831 30.519C7.20151 31.333 6.97111 32.1657 6.79532 33.0086C6.75504 33.2017 6.57834 33.3354 6.38364 33.3195C6.16209 33.3014 6.01255 33.0753 6.03269 32.8588C6.1099 32.0227 6.28141 30.7302 6.6583 29.2721C7.12339 27.4732 7.81919 25.7163 8.84671 24.1724C9.42533 23.303 10.1202 22.4891 10.9546 21.7907C12.0498 20.8742 13.1051 19.907 14.1082 18.8865C15.3213 17.6527 16.4712 16.3369 17.4649 14.9114Z" fill="#0076BE"/>
<path d="M17.4646 14.9114C17.9345 14.2376 18.1826 13.4458 18.1826 12.6215V1.64474C18.1826 1.39741 18.3798 1.19649 18.6221 1.19649H21.3729C21.6153 1.19649 21.8124 1.39741 21.8124 1.64474V12.6215C21.8124 13.4458 22.0605 14.2376 22.5302 14.9114C23.5214 16.3334 24.6679 17.6427 25.8758 18.8753C27.0977 20.1226 28.4899 21.1795 29.7222 22.4162C32.9586 25.6649 33.7634 30.7175 33.9614 32.8472C33.9617 32.851 33.962 32.855 33.9623 32.8588C33.9825 33.0759 33.8323 33.3014 33.6114 33.3195C33.6074 33.3198 33.6035 33.3192 33.5995 33.3195C33.4106 33.3288 33.2394 33.1977 33.2 33.0086C33.0755 32.4108 32.9422 31.7943 32.7404 31.2181C31.9137 28.888 30.9979 26.6907 29.4332 24.7587C27.9449 22.9211 26.0272 21.5212 24.1385 20.1475C23.2806 19.5232 22.2354 18.8862 21.7071 17.9199C20.9832 16.5948 19.0127 16.5926 18.2876 17.9196C17.7584 18.8881 16.7175 19.5208 15.8563 20.1475C14.841 20.8858 13.5775 21.805 12.0407 23.1928C9.88675 25.1378 8.41337 27.7685 7.47801 30.519C7.20121 31.333 6.9708 32.1657 6.79502 33.0086C6.75474 33.2017 6.57804 33.3354 6.38334 33.3195C6.16178 33.3014 6.01225 33.0753 6.03239 32.8588C6.1096 32.0227 6.28111 30.7302 6.658 29.2721C7.12309 27.4732 7.81889 25.7163 8.84641 24.1724C9.42502 23.303 10.1199 22.4891 10.9543 21.7907C12.0495 20.8742 13.1048 19.907 14.1079 18.8865C15.321 17.6527 16.4709 16.3369 17.4646 14.9114Z" fill="#F0BC5E"/>
</svg>
