<svg width="28" height="28" viewBox="0 0 28 28" fill="none" xmlns="http://www.w3.org/2000/svg">
<path d="M19.9159 13.0708C19.7395 12.8922 19.5046 12.7933 19.254 12.7927L16.126 12.783C15.9205 12.7824 15.6806 12.6025 15.6221 12.4052L14.3674 8.16354C14.3652 8.15635 14.3615 8.15165 14.3593 8.14446C14.2833 7.70278 13.8998 7.36526 13.4368 7.36526H11.4396C10.9222 7.36526 10.5012 7.7863 10.5012 8.30368V17.9568C10.5012 18.4742 10.9222 18.8952 11.4396 18.8952H11.8434C11.8565 18.8955 11.8681 18.8993 11.8816 18.8993L15.7669 18.8958C16.0425 18.8958 16.2668 19.1201 16.2668 19.3957V25.0915C16.2668 25.7125 16.7719 26.2176 17.3929 26.2176H18.1467C18.447 26.2176 18.7291 26.1 18.9412 25.8861C19.153 25.6721 19.2681 25.389 19.2653 25.0887L19.189 16.9887C19.183 16.3696 18.6744 15.8657 18.0551 15.8657H14.3752V14.9214C14.5457 15.0218 14.7381 15.0828 14.9323 15.0828H19.2396C19.7555 15.0828 20.1787 14.663 20.1831 14.1469L20.1862 13.7355C20.1887 13.4856 20.0927 13.2494 19.9159 13.0708Z" fill="#3F3D56"/>
<path d="M12.4383 6.3618C14.1922 6.3618 15.6192 4.93479 15.6192 3.1809C15.6192 1.42701 14.1922 0 12.4383 0C10.6845 0 9.25745 1.42701 9.25745 3.1809C9.25745 4.93479 10.6841 6.3618 12.4383 6.3618Z" fill="#3F3D56"/>
<path d="M14.439 19.5446H9.06475V17.6478V7.03872C9.06475 6.69339 8.78448 6.41312 8.43915 6.41312C8.09381 6.41312 7.81354 6.69339 7.81354 7.03872V17.6478V19.5446V27.3741C7.81354 27.7194 8.09381 27.9997 8.43915 27.9997C8.78448 27.9997 9.06475 27.7194 9.06475 27.3741V20.7958H14.439V27.3741C14.439 27.7194 14.7193 27.9997 15.0646 27.9997C15.41 27.9997 15.6902 27.7194 15.6902 27.3741V20.7958C15.6902 20.1061 15.1291 19.5446 14.439 19.5446Z" fill="#3F3D56"/>
</svg>
